<svg width="69" height="25" viewBox="0 0 69 25" fill="none" xmlns="http://www.w3.org/2000/svg">
<g clip-path="url(#clip0_6634_2219)">
<path fill-rule="evenodd" clip-rule="evenodd" d="M64.9657 9.907C64.9657 9.176 65.5427 8.579 66.2357 8.579C66.9467 8.579 67.5047 9.176 67.5047 9.907C67.5047 10.637 66.9467 11.234 66.2347 11.234C65.5427 11.254 64.9647 10.657 64.9647 9.907H64.9657ZM66.2357 10.945C66.7737 10.945 67.1967 10.484 67.1967 9.926C67.1967 9.368 66.7547 8.906 66.2347 8.906C65.6967 8.906 65.2737 9.368 65.2737 9.926C65.2737 10.484 65.6957 10.946 66.2347 10.946L66.2357 10.945ZM66.0617 10.503H65.7917V9.33H66.2737C66.3697 9.33 66.4847 9.33 66.5617 9.387C66.6577 9.445 66.6967 9.56 66.6967 9.676C66.6967 9.81 66.6197 9.926 66.5047 9.964L66.7157 10.484H66.4267L66.2547 10.022H66.0617V10.503ZM66.0617 9.849H66.2157C66.2737 9.849 66.3307 9.849 66.3697 9.83C66.4077 9.81 66.4267 9.753 66.4267 9.695C66.4267 9.657 66.4077 9.599 66.3697 9.58C66.3307 9.56 66.2547 9.56 66.2157 9.56H66.0807L66.0617 9.85V9.849ZM46.7877 1.039L46.4407 3.309C45.6907 2.905 45.1327 2.751 44.5367 2.751C42.9587 2.751 41.8427 4.367 41.8427 6.656C41.8427 8.233 42.5927 9.196 43.8247 9.196C44.3447 9.196 44.9217 9.022 45.6327 8.656L45.2677 11.042C44.4787 11.272 43.9777 11.35 43.3817 11.35C41.0937 11.35 39.6697 9.618 39.6697 6.848C39.6697 3.116 41.6317 0.5 44.4597 0.5C44.8247 0.5 45.1517 0.539 45.4217 0.616L46.3057 0.846C46.5367 0.943 46.5957 0.962 46.7877 1.039ZM39.7277 2.597C39.6697 2.577 39.5927 2.577 39.5157 2.577C38.8237 2.577 38.4197 2.943 37.7657 3.963L37.9577 2.673H36.0337L34.7257 11.157H36.8617C37.6307 5.963 37.8227 5.078 38.8417 5.078H38.9957C39.1887 4.059 39.4387 3.308 39.8047 2.616L39.7277 2.597ZM27.0127 11.042C26.4347 11.234 25.9727 11.33 25.4927 11.33C24.4157 11.33 23.8187 10.676 23.8187 9.464C23.8187 9.234 23.8387 8.964 23.8767 8.694L24.0107 7.868L24.1077 7.194L25.0307 1.404H27.1467L26.8967 2.654H27.9937L27.6857 4.714L26.6077 4.713L26.0507 8.253C26.0307 8.406 26.0117 8.522 26.0117 8.598C26.0117 9.041 26.2427 9.233 26.7427 9.233C26.9927 9.233 27.1657 9.214 27.3197 9.156L27.0127 11.042ZM18.6247 5.348C18.6247 6.425 19.1247 7.156 20.2407 7.714C21.0877 8.137 21.2407 8.271 21.2407 8.656C21.2407 9.176 20.8567 9.426 20.0297 9.426C19.3947 9.426 18.8177 9.33 18.1257 9.08L17.8357 11.042L17.9327 11.061L18.3177 11.138C18.4527 11.158 18.6247 11.195 18.8757 11.215C19.3757 11.253 19.7797 11.292 20.0487 11.292C22.2807 11.292 23.3187 10.388 23.3187 8.464C23.3187 7.31 22.8957 6.617 21.8187 6.098C20.9337 5.675 20.8367 5.578 20.8367 5.174C20.8367 4.713 21.1837 4.482 21.8767 4.482C22.2997 4.482 22.8567 4.54 23.3967 4.617L23.7037 2.655C23.1457 2.558 22.3187 2.482 21.8377 2.482C19.4337 2.482 18.6057 3.77 18.6247 5.348ZM63.7337 11.138H61.7137L61.8107 10.311C61.2337 10.965 60.6177 11.253 59.8487 11.253C58.2907 11.253 57.2707 9.849 57.2707 7.733C57.2707 4.905 58.8487 2.52 60.7337 2.52C61.5607 2.52 62.1757 2.885 62.7727 3.674L63.2337 0.692H65.3307L63.7347 11.138H63.7337ZM60.5987 9.156C61.5987 9.156 62.2917 7.983 62.2917 6.29C62.2917 5.213 61.8877 4.617 61.1567 4.617C60.1947 4.617 59.5027 5.81 59.5027 7.464C59.5027 8.579 59.8677 9.156 60.5987 9.156ZM33.7447 10.965C33.0147 11.195 32.3217 11.311 31.5517 11.311C29.1857 11.311 27.9357 10.003 27.9357 7.502C27.9357 4.579 29.5127 2.443 31.6477 2.443C33.3977 2.443 34.5147 3.655 34.5147 5.54C34.5147 6.156 34.4377 6.771 34.2447 7.637H30.0127C29.9937 7.772 29.9937 7.829 29.9937 7.907C29.9937 8.907 30.6287 9.407 31.8597 9.407C32.6097 9.407 33.3027 9.233 34.0717 8.868L33.7447 10.965ZM32.5527 5.905C32.5717 5.732 32.5717 5.579 32.5717 5.482C32.5717 4.79 32.2057 4.386 31.5717 4.386C30.8977 4.386 30.4167 4.925 30.2247 5.906H32.5527V5.905ZM10.0847 11.138H7.96869L9.18069 3.116L6.44869 11.138H5.00569L4.83269 3.174L3.54369 11.138H1.56269L3.21669 0.712H6.27569L6.35269 7.175L8.42969 0.712H11.7387L10.0847 11.138ZM15.5667 7.367C15.3367 7.348 15.2397 7.329 15.0867 7.329C13.8737 7.329 13.2767 7.772 13.2767 8.618C13.2767 9.138 13.5857 9.483 14.0467 9.483C14.8937 9.483 15.5287 8.618 15.5667 7.367ZM17.1057 11.138H15.3357L15.3747 10.253C14.8357 10.965 14.1247 11.273 13.1427 11.273C11.9887 11.273 11.1997 10.33 11.1997 8.964C11.1997 6.887 12.5847 5.694 14.9317 5.694C15.1817 5.694 15.4897 5.714 15.7977 5.752C15.8557 5.463 15.8747 5.348 15.8747 5.194C15.8747 4.636 15.5087 4.424 14.5087 4.424C13.9127 4.424 13.2197 4.521 12.7387 4.674L12.4687 4.77L12.2777 4.828L12.5657 2.924C13.6237 2.597 14.3357 2.462 15.1057 2.462C16.9327 2.462 17.8937 3.328 17.8937 4.944C17.8937 5.367 17.8557 5.674 17.7207 6.636L17.2977 9.656L17.2207 10.196L17.1637 10.619L17.1247 10.926L17.1047 11.138H17.1057ZM50.4607 7.367C50.2497 7.348 50.1337 7.329 49.9807 7.329C48.7687 7.329 48.1527 7.772 48.1527 8.618C48.1527 9.138 48.4607 9.483 48.9227 9.483C49.7877 9.483 50.4227 8.618 50.4607 7.367ZM52.0007 11.138H50.2307L50.2687 10.253C49.7307 10.965 49.0187 11.273 48.0377 11.273C46.8837 11.273 46.0947 10.33 46.0947 8.964C46.0947 6.887 47.4797 5.694 49.8267 5.694C50.0567 5.694 50.3837 5.714 50.6917 5.752C50.7497 5.463 50.7687 5.348 50.7687 5.194C50.7687 4.636 50.4037 4.424 49.4037 4.424C48.8067 4.424 48.1137 4.521 47.6337 4.674L47.3257 4.751L47.1337 4.809L47.4217 2.905C48.4797 2.578 49.1917 2.443 49.9617 2.443C51.7887 2.443 52.7507 3.309 52.7507 4.925C52.7507 5.348 52.7117 5.655 52.5777 6.617L52.1347 9.618L52.0767 10.157L52.0197 10.58L51.9807 10.869L52.0007 11.138ZM57.9437 2.597C57.8867 2.577 57.8097 2.577 57.7327 2.577C57.0397 2.577 56.6367 2.943 55.9827 3.963L56.1747 2.673H54.2507L52.9427 11.157H55.0777C55.8477 5.963 56.0397 5.078 57.0597 5.078H57.2137C57.4057 4.059 57.6747 3.308 58.0207 2.616L57.9437 2.597ZM49.0187 19.39C49.0187 21.314 48.4227 22.449 47.4797 22.449C46.7877 22.468 46.3837 21.699 46.3837 20.564C46.3837 19.217 46.9987 17.678 47.9607 17.678C48.7487 17.678 49.0187 18.505 49.0187 19.39ZM51.1157 19.41C51.1157 17.274 50.0567 15.6 48.0757 15.6C45.7867 15.6 44.3057 17.62 44.3057 20.602C44.3057 22.737 45.1907 24.488 47.3457 24.488C49.5187 24.488 51.1157 22.949 51.1157 19.409V19.41ZM44.9787 14.12L44.6517 16.39C43.9397 15.985 43.4397 15.831 42.8817 15.831C41.4017 15.831 40.3617 17.447 40.3617 19.736C40.3617 21.314 41.0547 22.276 42.2087 22.276C42.7087 22.276 43.2477 22.103 43.9017 21.737L43.5557 24.122C42.8247 24.353 42.3437 24.43 41.7857 24.43C39.6507 24.43 38.3037 22.699 38.3037 19.929C38.3037 16.197 40.1507 13.581 42.7857 13.581C43.1317 13.581 43.4207 13.619 43.6707 13.696L44.4787 13.927C44.7487 14.004 44.8057 14.023 44.9787 14.119V14.12ZM31.8407 15.658C31.7827 15.639 31.7057 15.639 31.6287 15.639C30.9747 15.639 30.6087 16.005 29.9937 17.024L30.1867 15.735H28.3967L27.1847 24.218H29.1667C29.8787 19.025 30.0707 18.14 31.0137 18.14C31.0707 18.14 31.0707 18.14 31.1677 18.16C31.3397 17.14 31.5907 16.39 31.9177 15.697L31.8407 15.658ZM57.7707 24.142H55.8857L55.9817 23.314C55.4437 23.968 54.8667 24.257 54.1357 24.257C52.6927 24.257 51.7307 22.853 51.7307 20.737C51.7307 17.909 53.2117 15.524 54.9627 15.524C55.7317 15.524 56.3287 15.889 56.8667 16.697L57.3097 13.715H59.2717L57.7717 24.142H57.7707ZM54.8287 22.14C55.7717 22.14 56.4067 20.967 56.4067 19.274C56.4067 18.197 56.0407 17.62 55.3487 17.62C54.4447 17.62 53.8087 18.793 53.8087 20.466C53.8087 21.582 54.1557 22.14 54.8287 22.14ZM13.2197 24.103C12.5467 24.333 11.8927 24.449 11.1807 24.449C8.96869 24.449 7.81469 23.141 7.81469 20.64C7.81469 17.736 9.29569 15.581 11.2767 15.581C12.9117 15.581 13.9507 16.774 13.9507 18.679C13.9507 19.294 13.8737 19.909 13.7007 20.775H9.75769C9.73769 20.91 9.73769 20.968 9.73769 21.045C9.73769 22.025 10.3347 22.525 11.4887 22.525C12.1997 22.525 12.8347 22.353 13.5467 21.987L13.2197 24.103ZM12.1037 19.043C12.1037 18.871 12.1237 18.717 12.1237 18.621C12.1237 17.928 11.7767 17.524 11.1807 17.524C10.5457 17.524 10.1037 18.063 9.91069 19.044H12.1037V19.043ZM36.8417 24.103C36.1687 24.333 35.5147 24.449 34.8027 24.449C32.5717 24.449 31.4177 23.141 31.4177 20.64C31.4177 17.736 32.8977 15.581 34.8797 15.581C36.5147 15.581 37.5727 16.774 37.5727 18.679C37.5727 19.294 37.4957 19.909 37.3227 20.775H33.3797C33.3597 20.91 33.3597 20.968 33.3597 21.045C33.3597 22.025 33.9567 22.525 35.1107 22.525C35.8227 22.525 36.4577 22.353 37.1687 21.987L36.8417 24.103ZM35.7267 19.043C35.7457 18.871 35.7457 18.717 35.7457 18.621C35.7457 17.928 35.3987 17.524 34.8027 17.524C34.1677 17.524 33.7257 18.063 33.5327 19.044H35.7267V19.043ZM64.5427 24.103C63.8497 24.333 63.1957 24.449 62.5027 24.449C60.2907 24.449 59.1177 23.141 59.1177 20.64C59.1177 17.736 60.5987 15.581 62.5997 15.581C64.2347 15.581 65.2737 16.774 65.2737 18.679C65.2737 19.294 65.1967 19.909 65.0237 20.775H61.0787C61.0587 20.91 61.0587 20.968 61.0587 21.045C61.0587 22.025 61.6557 22.525 62.8097 22.525C63.5217 22.525 64.1567 22.353 64.8687 21.987L64.5417 24.103H64.5427ZM63.4267 19.043C63.4267 18.871 63.4467 18.717 63.4467 18.621C63.4467 17.928 63.0997 17.524 62.5027 17.524C61.8677 17.524 61.4257 18.063 61.2327 19.044H63.4267V19.043ZM7.33369 16.043C6.94869 15.773 6.41069 15.563 5.67969 15.563C4.87169 15.563 4.23669 15.735 4.23669 16.581C4.23669 18.082 7.16069 17.524 7.16069 20.756C7.16069 23.699 5.23669 24.468 3.48669 24.468C2.71669 24.468 1.81269 24.218 1.15869 23.91L1.63869 21.756C2.04369 22.122 2.83269 22.372 3.50569 22.372C4.14069 22.372 5.10169 22.199 5.10169 21.102C5.10169 19.39 2.17869 20.025 2.17869 17.024C2.17869 14.274 3.89069 13.465 5.54469 13.465C6.46769 13.465 7.35269 13.6 7.85269 13.946L7.33269 16.043H7.33369ZM19.0287 24.103C18.6247 24.295 18.0677 24.43 17.2587 24.43C15.5287 24.43 14.4507 22.699 14.4507 20.583C14.4507 17.813 16.0087 15.62 18.2977 15.62C18.7977 15.62 19.5677 15.832 20.1637 16.178L19.7217 18.198C19.2987 17.909 18.8557 17.736 18.3947 17.736C17.3357 17.736 16.5667 18.717 16.5667 20.448C16.5667 21.448 17.1247 22.276 17.9907 22.276C18.5107 22.276 18.8747 22.16 19.3177 21.91L19.0297 24.103H19.0287ZM26.4547 21.968C26.3587 22.698 26.2617 23.411 26.2047 24.161H24.2987L24.4527 22.795H24.4327C23.8377 23.718 23.2217 24.353 22.1247 24.353C20.9327 24.353 20.2787 23.083 20.2787 21.449C20.2787 20.871 20.3167 20.564 20.4327 19.679L20.9717 15.755H23.1057L22.5297 19.698C22.4717 20.121 22.3947 20.544 22.3947 20.987C22.3947 21.487 22.6247 21.987 23.2027 21.949C24.0687 21.949 24.5877 20.891 24.7417 19.64L25.3377 15.755H27.3957L26.4537 21.968H26.4547ZM66.5237 24.065H66.1967V22.66H65.7347V22.353H66.9847V22.66H66.5237V24.065ZM68.6587 24.065H68.3507V22.641L68.0627 24.065H67.7547L67.4667 22.641V24.065H67.1587V22.353H67.6387L67.9087 23.699H67.9277L68.1967 22.353H68.6587V24.065Z" fill="#D3A562"/>
</g>
<defs>
<clipPath id="clip0_6634_2219">
<rect width="68" height="25" fill="white" transform="translate(0.98291)"/>
</clipPath>
</defs>
</svg>
