<svg width="67" height="39" viewBox="0 0 67 39" fill="none" xmlns="http://www.w3.org/2000/svg">
<g clip-path="url(#clip0_6634_2213)">
<path fill-rule="evenodd" clip-rule="evenodd" d="M57.3888 25.7829C57.2958 26.5279 57.1738 27.2429 57.0228 27.9279C56.3868 27.7209 55.6528 27.3879 54.6158 27.4579C53.9968 27.4979 53.2658 27.7359 53.2558 28.2939C53.2438 28.9119 54.2598 29.2799 54.8258 29.5499C55.8438 30.0379 56.9378 30.6869 57.0228 32.0099C57.0878 33.0249 56.6158 33.9099 56.0808 34.4159C54.6548 35.7639 51.4908 35.9059 49.3308 35.0439C49.4658 34.3239 49.5878 33.5919 49.6978 32.8459C50.5338 33.2019 51.6818 33.6819 52.9418 33.5259C53.5148 33.4559 54.2178 33.1209 54.1968 32.5329C54.1718 31.8149 52.8318 31.3869 52.1568 31.0149C51.3718 30.5829 50.4788 29.8629 50.4298 28.7649C50.3978 28.0339 50.6818 27.3489 51.0578 26.8819C52.1728 25.4959 55.0378 25.0039 57.3888 25.7829ZM31.7458 11.7709H34.6298L32.8538 22.9649H29.9688L31.7458 11.7709ZM24.2818 13.9959L23.8358 16.8049H24.6698C25.4798 16.8049 26.2478 16.1729 26.3758 15.3999C26.5028 14.6279 25.9428 13.9959 25.1328 13.9959H24.2818ZM21.7498 11.7699H26.1668C28.9768 11.7699 29.7068 13.3879 29.3998 15.3209C29.1438 16.9349 27.9838 18.0129 26.4778 18.3959L29.2758 22.9649H25.6538L23.5558 18.5689L22.8588 22.9649H19.9728L21.7498 11.7699ZM44.9198 11.7709H47.8048L46.0288 22.9649H43.1438L44.9198 11.7709ZM49.9968 11.7699H56.3308L55.9438 14.2039H52.4958L52.1918 16.1169H55.4708L55.0848 18.5509H51.8058L51.4918 20.5309H54.9408L54.5538 22.9649H48.2208L49.9968 11.7699ZM13.7008 11.7699H20.0338L19.6478 14.2039H16.1998L15.8958 16.1169H19.1738L18.7878 18.5509H15.5098L15.1958 20.5309H18.6438L18.2578 22.9649H11.9238L13.7008 11.7699ZM36.8148 11.7699H43.2198L42.8338 14.2039H39.3138L39.0048 16.1169H42.2078L41.8208 18.5509H38.6188L37.9188 22.9649H35.0378L36.8148 11.7699ZM60.5258 14.2039H61.1228C63.3278 14.2039 64.1898 15.7589 63.9528 17.2599C63.6328 19.2729 62.1858 20.5299 60.2938 20.5299H59.5228L60.5268 14.2039H60.5258ZM58.0278 11.7699H61.7878C66.2668 11.7699 67.2878 15.1579 66.9368 17.3699C66.4348 20.5299 63.6168 22.9649 60.0118 22.9649H56.2518L58.0278 11.7699ZM0.175781 10.2449H5.51278L6.14678 18.3779C9.67578 12.2659 13.2658 6.38491 16.8818 0.60791H18.6218C14.7948 7.98791 11.0158 15.4169 7.35678 22.9649H3.43878L2.48378 13.9949C2.24578 11.7699 1.79578 10.8259 0.175781 10.5859V10.2459" fill="#D3A562"/>
<path fill-rule="evenodd" clip-rule="evenodd" d="M2.1968 5.61997L6.7468 7.54897L7.1418 12.616H7.4788L11.6088 5.62297V5.27197H2.1958L2.1968 5.61997ZM20.9028 25.597H22.7698L22.1398 30.009C22.6738 29.494 23.3258 29.176 24.0548 29.176C25.5528 29.176 26.5348 30.619 26.2708 32.401C26.0058 34.183 24.5938 35.628 23.0958 35.628C22.3568 35.628 21.8278 35.295 21.4658 34.735L21.3668 35.435H19.4998L20.9028 25.597ZM23.2328 30.983C23.9228 30.983 24.3918 31.615 24.2798 32.395C24.1678 33.173 23.5188 33.805 22.8288 33.805C22.1388 33.805 21.6698 33.173 21.7818 32.395C21.8938 31.615 22.5438 30.983 23.2328 30.983Z" fill="#D3A562"/>
<path fill-rule="evenodd" clip-rule="evenodd" d="M26.431 29.326H28.672L29.674 32.453L31.62 29.326H33.786L28.103 38.453H25.938L28.334 34.605L26.431 29.326ZM44.919 35.432L46.56 25.594H49.245L47.604 35.432H44.919ZM42.675 25.574C41.749 27.753 40.96 30.068 40.007 32.219L39.727 30.928L39.723 30.912L39.77 31.142C39.563 30.463 39.21 29.822 38.76 29.235L38.724 29.19C38.646 29.088 38.562 28.99 38.478 28.892C38.426 28.832 38.374 28.773 38.32 28.714C37.67 28.003 36.882 27.389 36.05 26.903L38.437 35.41H41.315C42.669 32.09 44.131 28.879 45.5 25.574H42.676" fill="#D3A562"/>
<path fill-rule="evenodd" clip-rule="evenodd" d="M37.6068 25.575H33.2168V25.789C35.7448 26.282 38.9348 28.402 39.7698 31.142L38.8278 26.56C38.6978 25.854 38.2068 25.575 37.6078 25.575H37.6068ZM62.3658 28.3L60.9988 31.957H63.2088L62.3658 28.299V28.3ZM66.4408 35.463H63.9808C63.8218 34.993 63.7778 34.41 63.6148 33.945H60.2668L59.6388 35.463H56.8128L60.4758 27.039C60.6378 26.669 60.9288 26.165 61.0508 25.939C61.2378 25.599 61.9568 25.574 62.2628 25.574H64.2948L66.4408 35.463Z" fill="#D3A562"/>
</g>
<defs>
<clipPath id="clip0_6634_2213">
<rect width="67" height="39" fill="white"/>
</clipPath>
</defs>
</svg>
